<?xml version="1.0" encoding="utf-8"?>
<!-- Generator: Adobe Illustrator 22.1.0, SVG Export Plug-In . SVG Version: 6.00 Build 0)  -->
<svg version="1.1" id="Layer_1" xmlns="http://www.w3.org/2000/svg" xmlns:xlink="http://www.w3.org/1999/xlink" x="0px" y="0px"
	 viewBox="0 0 23.4 17.1" style="enable-background:new 0 0 23.4 17.1;" xml:space="preserve">
<style type="text/css">
	.st0{fill:#34CB01;}
	.st1{fill:#35CC01;}
	.st2{fill:#CBF2BF;}
	.st3{fill:#C5F0B8;}
	.st4{fill:#A3E78D;}
	.st5{fill:#FEFEFE;}
	.st6{fill:#98E57F;}
	.st7{fill:#F980DF;}
	.st8{fill:#A7E885;}
	.st9{fill:#95E47B;}
	.st10{fill:#A1E78A;}
	.st11{fill:#CDF2C1;}
	.st12{fill:#D2F3C7;}
	.st13{fill:#E5F7E0;}
	.st14{fill:#B5EBA4;}
	.st15{fill:#B1EA9E;}
	.st16{fill:#8AE170;}
	.st17{fill:#9AE582;}
	.st18{fill:#EDF9E9;}
	.st19{fill:#D0F3C5;}
	.st20{fill:#7EDE5F;}
	.st21{fill:#C5EBB7;}
	.st22{fill:#A9E895;}
	.st23{fill:#C3F0B4;}
	.st24{fill:#CEF3C3;}
	.st25{fill:#98E580;}
	.st26{fill:#BAECA9;}
	.st27{fill:#9EE687;}
	.st28{fill:#E4F7DE;}
	.st29{fill:#FEFE00;}
	.st30{fill:#5ED637;}
	.st31{fill:#59A426;}
	.st32{fill:#74DC52;}
	.st33{fill:#8EE273;}
	.st34{fill:#BDEE00;}
	.st35{fill:#6DD900;}
	.st36{fill:#65D840;}
	.st37{fill:#C3F0B5;}
	.st38{fill:#3ECE0E;}
	.st39{fill:#61D73B;}
	.st40{fill:#CDF200;}
	.st41{fill:#63D83E;}
	.st42{fill:#4FD223;}
	.st43{fill:#55D420;}
	.st44{fill:#6AC040;}
	.st45{fill:#FE81E5;}
	.st46{fill:#7AB24F;}
	.st47{fill:#FE05CC;}
	.st48{fill:#FECFF5;}
	.st49{fill:#FE1CD1;}
	.st50{fill:#38CC05;}
	.st51{fill:#72DC51;}
	.st52{fill:#C4F0B6;}
	.st53{fill:#8DE271;}
	.st54{fill:#AEE99B;}
	.st55{fill:#38CC03;}
	.st56{fill:#E3F700;}
	.st57{fill:#F44D8B;}
	.st58{fill:#FEDE19;}
	.st59{fill:#DD577F;}
	.st60{fill:#FE9E4C;}
	.st61{fill:#FE47D9;}
	.st62{fill:#FE5ADD;}
	.st63{fill:#FD02CB;}
	.st64{fill:#91705C;}
	.st65{fill:#C13C8E;}
	.st66{fill:#74A33C;}
</style>
<path class="st0" d="M3.2,10.2c0.6,0,1.2,0,1.9-0.1c0.2-0.2,0.4-0.3,0.7-0.4C6.3,8.9,6,8.4,5.2,8C5,7.6,4.6,7.6,4.2,7.5
	C3.7,7.5,3.3,7.4,3,7C2.8,6.4,2.9,5.9,2.9,5.3c0-0.5,0-0.9-0.7-0.9c-0.3,0-0.6,0-0.9-0.1C1.2,4.2,1.2,4.1,1.1,4C1,3.7,1,3.4,1.3,3.1
	c0.3-0.2,0.6-0.2,0.9-0.3c0.9,0,0.7-0.7,0.8-1.2C3.1,1.2,3.4,1,3.8,1c0.5,0.1,0.6,0.5,0.6,0.9c0.1,0.8,0,1.5,0,2.3
	c0,0.4-0.1,0.9,0.2,1.2c0.5,0.4,1.1,0.2,1.7,0.2c0.6,0,1.2-0.1,1.8,0.2c0.3,0.3,0.3,0.6,0.2,0.9C8.2,7.3,7.5,7.4,7.6,8
	c0,0.3,0,0.7,0,1C7.5,9.6,8,9.8,8.4,10.1c0.1,1.4,1.1,2.1,2,3c0.1,0.5,0.5,0.8,1,0.7c0.6,0,1.2-0.1,1.7,0.1c0.1,0,0.2,0.1,0.3,0.2
	c0.1,0.3,0.2,0.6-0.1,0.9l0,0c-0.3,0.3-0.6,0.3-1,0.3c-0.7,0-1.3,0-2,0c-0.3,0-0.5,0-0.7-0.2c-0.4-0.4-0.9-0.8-1.3-1.2l0,0
	c-0.3-0.3-0.6-0.6-0.9-1l0,0c-0.1-0.1-0.1-0.1-0.2-0.2c-0.1-0.4-0.4-0.7-0.8-0.8c-0.1-0.1-0.2-0.1-0.2-0.2c-0.9-0.8-1.2-0.7-1.5,0.5
	c-0.2,1.1-0.1,2.1-0.1,3.2c0,0.5,0,1-0.4,1.5c-0.3,0-0.6,0-0.9,0c-0.5-0.5-0.2-1.5-1-1.9c-0.3,0-0.6,0-0.9,0C1,14.8,1,14.4,1.1,14
	c0.3-0.4,0.8-0.5,1.1-0.9c0.6-0.3,0.6-0.9,0.6-1.4C2.9,11.2,2.8,10.6,3.2,10.2z"/>
<path class="st1" d="M20.2,17c-0.3,0-0.6,0-0.9,0c-0.5-0.6-0.4-1.3-0.4-2c0-0.9,0-1.8,0-2.7c-0.2-1-1.5-1.3-2.4-0.6
	c-0.1,0.1-0.2,0.3-0.4,0.4c-0.3,0.1-0.5,0.1-0.8-0.1c-0.4-0.6-0.2-1.3-0.2-1.9C15.2,9.6,15.1,9,16,9c0.5,0.2,0.7,0.8,1.2,1.1
	c1,0,2,0,3.1,0.1c0.6,0.8,0.3,1.7,0.4,2.5c0,0.1,0,0.2,0,0.3c-0.1,0.6,0.3,0.7,0.7,0.8c0.3,0.1,0.7,0.1,1,0.4
	c0.3,0.8-0.4,0.8-0.8,0.9l0,0.1c-0.1,0.1-0.2,0.1-0.3,0.2C20.3,15.6,20.8,16.6,20.2,17z"/>
<path class="st2" d="M19.2,12.1c0,1.7,0,3.3,0.1,5c-0.3,0-0.7,0-1,0c-0.3-1.2,0-2.3-0.1-3.5c0-0.4,0.1-0.9-0.1-1.3
	c-0.6,0-1.1,0-1.7,0c-0.1-0.2,0-0.3,0.1-0.4C17.4,11.6,18.4,11.4,19.2,12.1z"/>
<path class="st3" d="M4.2,17.1c0.2-1.2,0-2.5,0.1-3.8c0-0.4-0.1-0.9,0.2-1.3c0.6-0.5,1.3-0.5,1.9,0l0,0.1c0.1,0,0.1,0.1,0.1,0.2
	c0,0.1,0,0.1,0,0.1c-0.1,0.1-0.2,0-0.3,0c-0.2,0-0.5,0-0.7,0c-0.3,1.2,0,2.3-0.1,3.5c0,0.4,0.1,0.9-0.1,1.3
	C4.8,17.1,4.5,17.1,4.2,17.1z"/>
<path class="st4" d="M9.3,0.1c1.3,0,2.6,0,4,0c0.3,0.3,0.3,0.7,0,1c-1.3,0.4-2.7,0.4-4,0C8.9,0.7,8.9,0.4,9.3,0.1z"/>
<path class="st5" d="M9.3,0.1c0,0.3-0.1,0.6-0.1,0.9c0,0.1,0,0.1-0.1,0.2c-0.3,0.3-0.6,0.4-1,0.4c-1-0.3-1.7,0.7-2.6,0.7
	c-0.6-0.1-0.6-0.7-1-1C4.4,1.1,4.3,1.1,4.3,1C4.1,0.7,4,0.4,4.1,0c0.5,0,1.1-0.2,1.3,0.6c0.2,0.5,2.5,0.5,2.7,0C8.4,0,8.8,0,9.3,0.1
	z"/>
<path class="st6" d="M3.2,10.2c0,0.7-0.1,1.4,0,2c0.1,0.7-0.2,1.1-1,1.1c-0.2,0.2-0.5,0.2-0.8,0.2c-0.1,0-0.2-0.1-0.3-0.2
	c0-0.1,0-0.2,0.1-0.3c0.7,0.1,1-0.2,0.9-0.9c0-0.3,0-0.7,0-1.1C2.1,10.3,2.5,10,3.2,10.2z"/>
<path class="st7" d="M17.3,2c0,0.3,0,0.6,0.1,0.9c0.1,0.1,0.1,0.2,0.2,0.3c0.1,0.3,0.1,0.6,0.1,0.9c0,0.3,0,0.6-0.3,0.9
	c-0.1,0.1-0.2,0.1-0.4,0c-0.2-0.3-0.2-0.6-0.2-0.9c0-1.7,0-1.7-1.7-1.7c-0.4,0-0.7,0-1-0.3c-0.2-0.3-0.2-0.6,0-0.9
	C15.3,1.1,16.5,0.8,17.3,2z"/>
<path class="st6" d="M20.3,13c0-0.9-0.1-1.9-0.1-2.8c0.3,0,0.7,0,1,0c0.3,0.9,0.1,1.9,0.1,2.8C21,13.3,20.6,13.3,20.3,13z"/>
<path class="st8" d="M17.1,10.1c-0.7,0.2-1-0.1-1-0.9c-0.1-0.4-0.1-0.8,0.2-1.1c0.3-0.2,0.6-0.4,0.9-0.4c1,0,1.9-0.2,2.8,0.2
	c0.1,0.1,0.2,0.2,0.1,0.4c-0.4,0-0.8,0-1.2,0C17.2,8.2,17.2,8.2,17.1,10.1z"/>
<path class="st9" d="M20.3,13c0.3,0,0.6,0,0.9,0c0.1-0.1,0.1-0.1,0.2,0c0.3,0,0.6,0,0.9,0.1c1,0.3,1.1,0.5,0.7,2.1
	c-0.6,0-1.1,0-1.7,0c0.4-0.2,1-0.3,0.8-0.9c-0.3-0.3-0.6-0.7-1.1-0.6c-0.3,0-0.6-0.1-0.8-0.4C20.3,13.1,20.3,13,20.3,13z"/>
<path class="st10" d="M4.4,6C3.9,4.7,4.3,3.3,4.2,2c0-0.3,0.1-0.8-0.5-0.8c-0.6,0-0.5,0.4-0.5,0.7C2.9,2.2,2.6,2.2,2.3,2
	c0-0.3,0-0.6,0-0.9c0.2-0.3,0.6-0.4,0.9-0.4c0.4,0,0.8,0,1.2,0.3l0,0C5,2.7,5,4.3,4.4,6z"/>
<path class="st11" d="M10.2,15.2c0.7,0,1.4,0,2.2,0c0.2,0.3,0.3,0.6,0,0.9c-0.7,0-1.4,0-2.1,0C9.9,15.8,9.9,15.5,10.2,15.2z"/>
<path class="st6" d="M3.2,5.1c0,0.6,0,1.3,0,1.9c0.1,0.1,0.1,0.2,0,0.4C2.9,7.5,2.6,7.5,2.3,7.2c0-0.7,0-1.4-0.1-2.1
	c0,0,0.1-0.1,0.1-0.1C2.6,4.8,2.9,4.8,3.2,5.1z"/>
<path class="st5" d="M17.4,3.1c0-0.1,0-0.1,0-0.2C18.6,2.8,18,1.8,18,1.3c0-1,0.3-1.4,1.3-1.2c0.2,0.3,0.3,0.6,0.1,0.9
	c-0.1,0.1-0.1,0.2-0.2,0.3c-0.4,0.2-0.6,0.6-0.6,1c0,0.4,0,0.8-0.3,1.1C18,3.4,17.7,3.4,17.4,3.1z"/>
<path class="st6" d="M20.2,17c0-0.4,0.1-0.7,0-1.1c-0.1-0.8,0.3-1,1-0.8c0.1,0.6,0.2,1.3,0,1.9C20.9,17.1,20.5,17.1,20.2,17z"/>
<path class="st12" d="M1.3,14c0,0.4,0,0.8,0,1.1c-0.3,0-0.7,0-1,0c-0.2-0.4-0.1-0.8-0.1-1.3c-0.1-0.8,0.4-0.9,1-0.7c0,0,0.1,0,0.1,0
	C1.5,13.5,1.5,13.7,1.3,14z"/>
<path class="st6" d="M2.2,15.2c0.8-0.2,1.1,0.1,1,0.9c0,0.3,0,0.6,0,0.9c-0.7,0.1-1.1,0-1-0.8C2.3,15.9,2.2,15.5,2.2,15.2z"/>
<path class="st5" d="M17.3,2c-1-0.4-1.9-1.2-3.1-0.8c0,0-0.1-0.1-0.1-0.1c0,0,0-0.1,0.1-0.1c0.7,0,1.4,0,2.1,0
	C17.2,0.9,17.5,1.2,17.3,2z"/>
<path class="st13" d="M20.2,0.1c1.5-0.1,1,1.1,1.2,1.9c0,0-0.1,0.1-0.1,0.1C21.2,2,21.1,2,21,1.9c-0.2-0.3-0.6-0.4-0.9-0.7
	C20.1,1.1,20,1,20,0.9C20,0.6,20,0.3,20.2,0.1z"/>
<path class="st14" d="M2.3,7.2c0.3,0,0.6,0,0.9,0C3.7,7.8,4.4,7.5,5,7.8C5.1,7.9,5.2,8,5.2,8.1c0,0-0.1,0.1-0.1,0.1
	c-0.7,0-1.4-0.1-2,0C2.3,8.2,2.1,7.9,2.3,7.2z"/>
<path class="st15" d="M16.4,12.1c0,0.1,0,0.1,0,0.2c0.1,0.8-0.5,1-1.1,1c0,0-0.1-0.1-0.1-0.1c-0.2-0.3-0.2-0.6-0.1-0.9
	c0-0.1,0.1-0.2,0.2-0.3c0.1-0.1,0.2,0,0.3,0c0.2,0,0.5,0,0.7,0C16.2,11.9,16.3,12,16.4,12.1z"/>
<path class="st13" d="M21.4,1.9c0.8,0.1,2.1-0.4,1.9,1.2c-0.1,0.1-0.2,0.1-0.3,0.1C22.2,3.2,21.7,2.7,21.4,1.9L21.4,1.9z"/>
<path class="st16" d="M15.2,13.2c0.1,0.8-0.4,0.9-1,1c-0.3,0.2-0.6,0.3-0.9,0l-0.1,0l-0.1,0c0-0.1,0-0.1-0.1-0.2
	c0-0.1,0.1-0.2,0.2-0.2c0.4-0.1,0.7-0.5,1-0.7c0.3-0.1,0.6-0.1,0.8,0.1C15.2,13.2,15.2,13.2,15.2,13.2z"/>
<path class="st5" d="M18.1,12.3c0.5,1.1,0.1,2.3,0.2,3.5c0,0.4,0,0.9,0,1.3C17.8,15.5,18.2,13.9,18.1,12.3z"/>
<path class="st5" d="M5.1,17.1c0.2-1.6-0.3-3.2,0.2-4.8C5.2,13.9,5.7,15.5,5.1,17.1z"/>
<path class="st17" d="M22.4,5c-0.3,0-0.6,0.1-0.9,0.1c-0.1,0-0.3,0-0.3-0.2c-0.2-0.3-0.2-0.6,0.1-0.9c0.3-0.2,0.6-0.2,1-0.2
	c0.1,0,0.2,0.1,0.3,0.2C22.7,4.4,22.7,4.8,22.4,5z"/>
<path class="st18" d="M1.3,5.1c-0.7,0.1-1.4,0.1-1.2-1c0.4-0.3,0.8-0.3,1.2,0l0,0C1.5,4.4,1.6,4.7,1.3,5.1z"/>
<path class="st19" d="M22.4,5c0-0.3,0-0.6,0.1-0.9c0.2-0.3,0.4-0.6,0.6-0.9c0,0,0.1-0.1,0.1-0.1c0.1,0,0.1,0,0.2,0c0,0.4,0,0.7,0,1
	C23.4,5,23,5.2,22.4,5z"/>
<path class="st2" d="M1.3,4.1c-0.4,0-0.8,0-1.2,0c0-0.3,0-0.6,0-0.9C0.2,3.1,0.2,3,0.4,3C0.6,2.9,0.9,2.9,1.2,3c0,0,0.1,0.1,0.1,0.1
	C1.3,3.5,1.3,3.8,1.3,4.1z"/>
<path class="st20" d="M2.3,2c0.3,0,0.6,0,0.9,0c0.1,0.8,0,1.4-1,1.1C1.9,2.8,2,2.5,2.2,2.2C2.2,2.1,2.3,2,2.3,2z"/>
<path class="st15" d="M6.1,10.1c-0.3,0-0.6,0-1,0c0-0.6,0-1.3,0-1.9c0,0,0.1,0,0.1,0C5.8,8.6,6.5,9.1,6.1,10.1z"/>
<path class="st21" d="M4.4,1C4,1,3.6,1,3.2,1C2.9,0.6,2.9,0.3,3.2,0c0.3,0,0.6,0,0.9,0C4.3,0.3,4.4,0.7,4.4,1z"/>
<path class="st22" d="M8.3,14.2c0.9-0.3,0.9,0.5,1.2,1c-0.1,0.1-0.2,0.1-0.3,0.1C8.5,15.2,8.1,15,8.3,14.2z"/>
<path class="st5" d="M21.2,5.1c0.1,0,0.1,0,0.2,0c0,0.6-0.1,1.3,0,1.9c0.1,1-0.3,1.3-1.2,1.2c0-0.1,0-0.1,0-0.2c0,0,0.1-0.1,0.1-0.1
	c0.4-0.2,0.6-0.6,0.5-1c0-0.5-0.1-1.1,0.2-1.6C21.1,5.2,21.2,5.1,21.2,5.1z"/>
<path class="st23" d="M2.2,2.2c0,0.3,0,0.6,0,0.9c-0.3,0-0.6,0.1-0.9,0.1c0,0-0.1-0.1-0.1-0.1C1,2.8,1,2.6,1.2,2.3
	c0,0,0.1-0.1,0.1-0.1C1.6,2.2,1.9,2.2,2.2,2.2z"/>
<path class="st5" d="M13.3,1c0-0.3,0-0.6-0.1-0.9c0.7-0.1,1.1,0.2,1,0.9c0,0-0.1,0.1-0.1,0.1C13.9,1.3,13.6,1.3,13.3,1z"/>
<path class="st24" d="M20.2,0.1c0,0.3,0,0.7,0,1c-0.3,0.2-0.6,0.2-0.9,0c0-0.3,0-0.7,0-1C19.6,0,19.9,0,20.2,0.1z"/>
<path class="st25" d="M1.3,5.1c0-0.3,0-0.6,0-1c0.3,0,0.6,0,0.9,0C2.5,4.4,2.5,4.7,2.3,5c0,0-0.1,0.1-0.1,0.1
	C1.9,5.1,1.6,5.1,1.3,5.1z"/>
<path class="st26" d="M7.3,13.2c0.9-0.2,1,0.3,0.9,1C7.5,14.2,7.1,14,7.3,13.2z"/>
<path class="st27" d="M13.3,14.2c0.3,0,0.6,0,0.9,0c0.1,0.8-0.3,1.1-1,0.9C13.3,14.8,13.3,14.5,13.3,14.2z"/>
<path class="st13" d="M9.2,15.2c0.1,0,0.2,0,0.3-0.1c0.2,0,0.5,0,0.7,0c0,0.3,0,0.6,0,0.9C9.4,16.2,9.1,15.9,9.2,15.2z"/>
<path class="st28" d="M12.3,16.1c0-0.3,0-0.6,0-0.9c0.3,0,0.6,0,0.9,0C13.4,15.9,13.1,16.2,12.3,16.1z"/>
<path class="st5" d="M3.2,0c0,0.3,0,0.6-0.1,0.9C2.9,1,2.6,1,2.3,1C2.1,0.3,2.4-0.1,3.2,0z"/>
<path class="st5" d="M1.2,13.2c-1.7,0-0.6,1.3-0.9,1.9c-0.6-1.6-0.4-2.1,1-2.1C1.3,13.1,1.2,13.2,1.2,13.2z"/>
<path class="st5" d="M21.4,12.9L21.4,12.9c-0.1,0-0.2,0-0.2,0c0-1,0-1.9-0.1-2.9C21.7,11,21.3,12,21.4,12.9z"/>
<path class="st5" d="M23.1,15.1c0.1-0.8,0.4-1.7-0.7-2.1C23.5,13.1,23.7,13.7,23.1,15.1z"/>
<path class="st5" d="M0.3,3.1c-0.1,0-0.1,0-0.2,0c0-1.4,0.1-1.4,1.2-1c0,0,0,0,0,0C0.9,2.5,0.6,2.8,0.3,3.1z"/>
<path class="st5" d="M6.1,12.3c0.1,0,0.1,0,0.2,0C6.6,12.5,7,12.7,7.2,13c0.1,0.1,0.1,0.1,0,0.2C6.6,13.3,5.9,13.3,6.1,12.3z"/>
<path class="st5" d="M21.2,17.1c0-0.6,0-1.3,0-1.9c0.1,0,0.2,0,0.2,0C21.3,15.8,21.7,16.5,21.2,17.1z"/>
<path class="st29" d="M7.3,9.1c0-0.4,0-0.8,0-1.1C7.6,7.7,8,7.3,8.2,7c0-0.3,0-0.6,0-0.9C8,5.8,8,5.5,8.1,5.1
	c0.2-0.3,0.5-0.3,0.8-0.5C9.4,4.1,10,3.5,10.6,3c0.9-0.2,1.7-0.3,2.6,0c0.3,0.2,0.4,0.5,0.4,0.8c0,0.5,0.1,0.9,0.6,1.1
	C14.3,5,14.3,5,14.4,5.1c0.1,0.5,0.7,0.7,1,1c0.1,0.3,0.2,0.6,0.2,0.9c0,0.3,0.1,0.5,0.3,0.8c0.4,0.5,1,1-0.2,1.3
	c-0.6,0.1-0.2,0.8-0.3,1.2c-0.1,0.6,0.1,1.2-0.1,1.8l0,0c-0.6,0.4-0.9,1.1-1.5,1.4c-0.1,0.2-0.3,0.3-0.4,0.5l0,0
	c-0.8,0.3-1.6,0-2.5,0.1c-0.6,0.1-0.4-0.5-0.7-0.8C9,12.5,8,11.7,8.2,10.1C8,9.7,7.6,9.5,7.3,9.1z"/>
<path class="st21" d="M4.4,6c0-1.7,0-3.3,0-5C5.2,0.8,5,1.6,5.3,2C5.4,2,5.5,2.1,5.5,2.2c0.2,0.6-0.3,1.2,0,1.9
	c0,0.6,0.6,0.7,0.9,1.1C6.6,5.5,6.6,5.8,6.3,6C5.7,6.1,5,6.1,4.4,6z"/>
<path class="st30" d="M6.3,12c-0.6,0-1.3,0-1.9,0c-0.1-0.7,0.1-1,0.9-1C6,11.1,6.4,11.2,6.3,12z"/>
<path class="st31" d="M6.3,6c0-0.3,0-0.6,0-0.9C6.3,5.1,6.3,5,6.4,5C6.9,4.7,7.4,4.7,8,4.9c0.1,0,0.2,0.1,0.3,0.3c0,0.3,0,0.6,0,0.9
	C7.6,6,6.9,6,6.3,6z"/>
<path class="st32" d="M5.1,8C4.5,7.7,3.4,8.6,3.2,7.2c0-0.1,0-0.2,0.1-0.3c0.4,0.3,0.9,0.3,1.3,0.3c0.5,0,0.8,0.2,0.8,0.7
	C5.3,8,5.2,8.1,5.1,8z"/>
<path class="st33" d="M5.1,8c0.1,0,0.2,0,0.3,0c1,0.2,1.2,0.8,0.7,2.1c0.2-0.9-0.8-1.2-0.9-1.9C5.1,8.1,5.1,8,5.1,8z"/>
<path class="st34" d="M8.2,7c0.1,0.7-0.1,1.1-0.9,1C7.1,7.1,7.6,7,8.2,7z"/>
<path class="st35" d="M7.3,9.1c0.8-0.1,1.1,0.3,0.9,1C7.4,10.2,7.2,9.8,7.3,9.1z"/>
<path class="st36" d="M2.3,5c0-0.3,0-0.6-0.1-0.9C3,4,3.3,4.3,3.2,5.1C2.9,5.1,2.6,5,2.3,5z"/>
<path class="st37" d="M7.2,13c-0.5,0-1,0-0.9-0.7c0-0.1,0-0.2,0-0.2C7.1,11.9,7.4,12.2,7.2,13z"/>
<path class="st38" d="M10.1,13.3c0.2,0.5,0.5,0.9,1.1,0.8c0.7-0.1,1.3-0.1,2-0.1c0,0.1,0,0.2-0.1,0.3c-0.7,0-1.4,0-2.1,0
	C10.4,14.3,10.1,14,10.1,13.3z"/>
<path class="st36" d="M1.3,14c0-0.2,0-0.5,0-0.7c0.3,0,0.6,0,0.9,0C2.3,14,1.8,14,1.3,14z"/>
<path class="st39" d="M16.4,12.1c-0.1,0-0.2,0-0.3-0.1c-0.1-0.7,0.2-1,1-0.9c0.4,0,0.9,0,1.3,0c0.8-0.1,1,0.4,0.8,1
	C18.3,12.1,17.4,12.1,16.4,12.1z"/>
<path class="st40" d="M15.2,10.1c0-0.5-0.2-1.1,0.6-1.3c0.4-0.1,0.4-0.5,0-0.6C15.1,8,15.2,7.5,15.2,7c1.3,0,1.4,0.1,1.2,1.2
	c-0.1,0.4,0.1,0.8-0.2,1.1c-0.7-0.1-0.8,0.4-0.8,0.9C15.4,10.2,15.3,10.2,15.2,10.1z"/>
<path class="st41" d="M21.2,13.2c0.7-0.1,1.1,0.2,1,0.9c-0.3,0-0.7,0.1-1-0.2C21,13.7,21,13.5,21.2,13.2z"/>
<path class="st42" d="M21.2,13.2c0,0.2,0,0.5,0,0.7c-0.5,0-1.1,0-0.9-0.8C20.6,13.2,20.9,13.2,21.2,13.2z"/>
<path class="st43" d="M15.2,10.1c0.1,0,0.1,0,0.2,0c0,0.6,0,1.3,0,1.9c-0.1,0-0.2,0-0.2,0C15.2,11.4,15.2,10.8,15.2,10.1z"/>
<path class="st44" d="M13.3,1c0.3,0,0.6,0,0.9,0.1c0,0.1,0,0.1,0.1,0.2c0,0.3,0,0.6,0,0.9c0,0.1-0.1,0.1-0.1,0.2
	c-0.3,0.2-0.6,0.2-1-0.1c-0.4-0.6-0.9-0.7-1.6-0.7c-0.8,0-1.6,0.2-2.4-0.2C9.1,1.3,9.1,1.1,9.2,1c0,0,0,0,0,0C10.5,1,11.9,1,13.3,1z
	"/>
<path class="st45" d="M5.4,2.2c0-0.1,0-0.2,0-0.2c0.3,0,0.7,0,0.8-0.1c0.5-1,1.4-0.5,2.1-0.6c0.3,0.3,0.3,0.7,0,1
	C7.7,2.6,7,2.5,6.4,2.5C6,2.5,5.6,2.4,5.4,2.2z"/>
<path class="st46" d="M8.2,2.1c0-0.3,0-0.6,0-0.8c0.3-0.1,0.6-0.2,1-0.2c0,0.1,0,0.2,0,0.2c0.2,0.3,0.3,0.6,0.1,0.9
	C9.1,2.4,8.8,2.4,8.5,2.4C8.3,2.3,8.3,2.2,8.2,2.1z"/>
<path class="st47" d="M14.3,2.1c0.4,0,0.7,0,1.1,0c1.7-0.2,1.9,0,1.8,2c-0.3,0.3-0.4,0.6-0.6,1c-0.1,0.1-0.2,0.2-0.3,0.2
	c-0.4,0.1-0.7,0.1-1.1,0.1c-0.3,0-0.6-0.1-0.9-0.3l0,0c-0.3-0.3-0.3-0.6-0.3-0.9c0-0.3,0-0.7,0-1C13.9,2.8,14,2.5,14.3,2.1L14.3,2.1
	z"/>
<path class="st5" d="M17.3,5.1c0-0.3,0.1-0.6,0.1-0.9c0.3-0.2,0.5-0.2,0.8,0c0.3,0.6,0.3,1.3,0,1.9c-0.3,0.2-0.5,0.2-0.8,0.1
	C17.1,5.8,17.1,5.4,17.3,5.1z"/>
<path class="st48" d="M18.1,4.1c-0.2,0-0.5,0-0.7,0c0-0.3,0-0.7,0-1c0.3,0,0.6,0,0.9,0c0.3,0.3,0.3,0.6,0.1,0.9
	C18.3,4.2,18.2,4.2,18.1,4.1z"/>
<path class="st3" d="M17.3,5.1c0,0.3,0,0.6,0.1,1c-0.3,0.3-0.6,0.3-1,0.1c-0.3-0.3-0.3-0.7,0-1L16.4,5c0.2-0.2,0.5-0.2,0.7,0
	C17.2,5.1,17.2,5.1,17.3,5.1z"/>
<path class="st49" d="M17.1,5c-0.2,0-0.5,0-0.7,0c0-0.5,0-1,0.7-0.9C17.1,4.4,17.1,4.7,17.1,5z"/>
<path class="st50" d="M16.4,6c0.3,0,0.7,0,1,0c0.2,0,0.5,0,0.7,0c0.1-0.1,0.2-0.2,0.3-0.2c0.7-0.4,0.5-1.1,0.5-1.7
	c0.1-1-0.3-2.1,0.4-3.1c0,0,0,0,0,0c0.3,0,0.6,0,0.9,0c0,0.1,0,0.1,0,0.2c0.2,0.2,0.3,0.5,0.3,0.8c0,0.7,0.4,0.9,1,0.9
	c0.3,0,0.5,0.1,0.7,0.3c0.2,0.3,0.2,0.7-0.1,1c-0.3,0-0.6,0-0.9,0c-0.4,0.2-0.7,0.6-0.7,1.1c0,0.6,0.1,1.1-0.1,1.7
	c0,0.1-0.1,0.2-0.2,0.3c-0.6,0.4-1.2,0.2-1.8,0.3c-0.5,0-1-0.1-1.3,0.4c-0.2,0.1-0.4,0.3-0.7,0.2c0.2-1-0.6-0.9-1.2-1.2
	c0-0.3,0-0.6,0-0.9c0,0,0.1-0.1,0.1-0.1C15.7,5.7,16,5.7,16.4,6z"/>
<path class="st51" d="M17.1,7.9c0-0.6,0.3-0.7,0.8-0.7c0.8,0,1.5,0,2.3,0c0.3,0.2,0.2,0.5,0.1,0.8c0,0,0,0,0,0
	C19.2,8,18.2,7.9,17.1,7.9z"/>
<path class="st2" d="M19.3,1c0,1.4-0.1,2.8,0,4.2c0,0.8-0.3,1-1,0.8c-0.2-0.6-0.1-1.3,0-1.9c0-0.3,0-0.6,0-1c0-0.4,0.1-0.8,0-1.2
	C18.2,1.2,18.5,0.9,19.3,1z"/>
<path class="st20" d="M21.5,3.1c-1.8,0.3-1.1-1.1-1.2-1.9c0.6-0.1,1,0,1,0.7C21.4,2.3,21.6,2.7,21.5,3.1z"/>
<path class="st52" d="M21.5,3.1c-0.3-0.3-0.3-0.8-0.3-1.2c0.1,0,0.1,0,0.2,0c0.6,0.3,1,1,1.7,1.2c0,0-0.1,0-0.1,0
	c-0.3,0.3-0.6,0.2-0.9,0C21.9,3.1,21.7,3.1,21.5,3.1z"/>
<path class="st43" d="M13.3,13.2c0.4-0.3,0.9-0.2,1-0.9c0-0.4,0.6-0.2,0.9-0.3c0.1,0.4,0.1,0.8-0.1,1.2c-0.3,0-0.6,0-0.9,0
	C13.9,13.5,13.6,13.5,13.3,13.2z"/>
<path class="st38" d="M13.3,13.2c0.3,0,0.6,0,0.9,0c0.1,0.8-0.4,0.8-1,0.7C13.3,13.7,13.3,13.5,13.3,13.2z"/>
<path class="st53" d="M22.2,3.1c0.3,0,0.6,0,0.9,0c0.1,0.5,0.1,1-0.6,0.9c-0.1,0-0.2,0-0.3,0C22.2,3.8,22.2,3.5,22.2,3.1z"/>
<path class="st36" d="M20.3,5.1c-0.1-0.8,0.2-1.1,1-0.9c0,0.3,0,0.6,0,0.9c0,0,0,0,0,0C20.9,5.3,20.6,5.4,20.3,5.1z"/>
<path class="st18" d="M0.3,3.1c-0.1-0.7,0.2-1.1,1-0.9c0,0.3-0.1,0.6-0.1,0.9C0.9,3.1,0.6,3.1,0.3,3.1z"/>
<path class="st6" d="M20.3,5.1c0.3,0,0.6,0,1,0c0,0.6,0,1.3,0,1.9c-0.3,0.2-0.6,0.3-0.9,0C20.3,6.4,20.3,5.7,20.3,5.1z"/>
<path class="st54" d="M20.3,7c0.3,0,0.6,0,0.9,0c0.1,0.7-0.1,1.1-0.9,1c0-0.3,0-0.5-0.1-0.8C20.2,7.1,20.2,7.1,20.3,7z"/>
<path class="st55" d="M9.2,2.2c0-0.3,0-0.6,0-0.9c1.1,0,2.1,0,3.2,0c0.8,0,1,0.3,0.9,1c0.2,0.3,0.2,0.5,0.1,0.8c0,0-0.1,0.1-0.1,0.1
	c-1,0-1.9,0-2.9,0c-0.3,0.3-0.7,0.3-1.1,0.2C9.2,3.3,9.1,3.2,9,3.1C8.9,2.7,9,2.4,9.2,2.2z"/>
<path class="st56" d="M9.3,3.1c0.4,0,0.8,0,1.1,0c0,0.4,0.1,0.9-0.5,1C9.3,4.2,9.6,4.9,9.2,5.1c-0.3-0.3-0.3-0.6-0.3-1
	C8.9,3.7,8.9,3.4,9.3,3.1z"/>
<path class="st57" d="M14.2,3.1c0,0.3,0,0.7,0,1c-0.3,0.2-0.6,0.2-0.9,0c0-0.3,0-0.6-0.1-0.9c0,0,0.1,0,0.1,0
	C13.6,2.9,13.9,2.9,14.2,3.1z"/>
<path class="st58" d="M14.2,5.1c0.3,0,0.7,0,1,0c0.3,0.3,0.2,0.6,0.1,0.9c0,0-0.1,0-0.1,0C14.5,6.1,14.1,5.8,14.2,5.1z"/>
<path class="st59" d="M9.2,4.1c0,0.3,0,0.6,0,1c-0.3,0-0.6,0-1,0.1c0,0,0-0.1,0-0.1C8,4,8.1,3.9,9.2,4.1z"/>
<path class="st60" d="M13.3,4.1c0.3,0,0.6,0,0.9,0c0,0.3,0,0.6,0,0.9C13.5,5.2,13.1,4.9,13.3,4.1z"/>
<path class="st61" d="M5.4,2.2c0.3,0,0.6,0,1,0C7,3.2,5.8,3.4,5.6,4C5.5,4,5.4,4.1,5.3,4.2C5,3.5,5.3,2.9,5.4,2.2z"/>
<path class="st62" d="M6.3,5.1c-0.6,0-1.1-0.1-1-1c0,0,0.1-0.1,0.1-0.1C6.5,3.9,6.6,4,6.3,5.1L6.3,5.1z"/>
<path class="st63" d="M6.3,5c0.1-0.7-0.2-1-0.9-1c0-0.3-0.2-0.8,0.4-0.9c0.7-0.1,0.5-0.6,0.6-1c0.6,0,1.3-0.1,1.9-0.1
	c0,0,0.1,0.1,0.1,0.1c0.2,0.4,0.6,0.7,0.9,1c0,0,0.1,0,0.1,0c0,0.3-0.1,0.6-0.1,1C8.4,4,8.2,4.3,8.2,5C7.6,5,7,5,6.3,5z"/>
<path class="st64" d="M14.2,3.1c-0.3,0-0.6,0-0.9,0c0-0.3,0-0.6,0-0.9c0.3,0,0.6,0,0.9,0C14.2,2.5,14.2,2.8,14.2,3.1z"/>
<path class="st65" d="M9.2,3.1c-0.8,0.1-1.1-0.2-0.9-1c0.3,0,0.6,0,0.9,0C9.2,2.5,9.2,2.8,9.2,3.1z"/>
<path class="st66" d="M15.3,6.1c0-0.3,0-0.6-0.1-0.9c0.4,0,0.7,0,1.1,0c0,0.3,0,0.6,0,0.9C16,6,15.6,6,15.3,6.1z"/>
<path class="st5" d="M18.3,4.1c0,0.6,0,1.3,0,1.9c-0.1,0-0.2,0-0.2,0c0-0.6,0-1.3,0-1.9C18.1,4.1,18.2,4.1,18.3,4.1z"/>
</svg>
